<svg width="195" height="30" viewBox="0 0 195 30" fill="none" xmlns="http://www.w3.org/2000/svg">
<path d="M193.46 16.256L190.365 16.004C189.405 20.3 188.877 22.796 188.781 23.492C188.709 24.188 188.673 24.764 188.673 25.22C188.673 25.652 188.816 25.868 189.104 25.868C189.44 25.868 190.076 25.652 191.012 25.22L191.876 26.948C191.108 27.644 190.136 28.232 188.96 28.712C187.784 29.192 186.644 29.432 185.54 29.432C184.46 29.432 183.597 29.156 182.949 28.604C182.301 28.028 181.977 27.224 181.977 26.192C181.977 25.16 182.276 23.504 182.876 21.224C183.476 18.944 183.872 17.252 184.064 16.148C183.488 16.196 182.636 16.28 181.508 16.4C181.412 15.896 181.365 15.428 181.365 14.996C181.365 14.54 181.424 14.036 181.544 13.484H184.424C184.448 13.172 184.46 12.128 184.46 10.352L184.389 8.876C186.717 8.108 188.936 7.724 191.048 7.724C191.216 8.108 191.3 8.78 191.3 9.74C191.3 10.676 191.145 11.924 190.833 13.484H194.072C194.072 14.468 193.868 15.392 193.46 16.256Z" fill="black"/>
<path d="M175.505 24.14C175.505 25.628 174.809 26.888 173.417 27.92C172.049 28.928 170.441 29.432 168.593 29.432C166.745 29.432 165.221 29.12 164.021 28.496C162.845 27.872 162.257 27.284 162.257 26.732C162.257 26.156 162.617 25.436 163.337 24.572C164.081 23.684 164.837 23.168 165.605 23.024C166.709 23.624 167.705 24.956 168.593 27.02C169.289 27.02 169.637 26.792 169.637 26.336C169.637 26 169.541 25.688 169.349 25.4C169.157 25.112 169.013 24.884 168.917 24.716C168.821 24.548 168.653 24.32 168.413 24.032C168.173 23.72 167.993 23.492 167.873 23.348C167.273 22.628 166.733 21.968 166.253 21.368C165.101 19.928 164.525 18.668 164.525 17.588C164.525 16.484 164.873 15.584 165.569 14.888C166.769 13.664 168.533 13.052 170.861 13.052C172.325 13.052 173.489 13.34 174.353 13.916C175.217 14.468 175.649 15.308 175.649 16.436C175.649 17.54 174.989 18.812 173.669 20.252C174.893 21.668 175.505 22.964 175.505 24.14ZM173.093 17.552C173.381 17.096 173.525 16.688 173.525 16.328C173.525 15.968 173.369 15.692 173.057 15.5C172.745 15.308 172.373 15.212 171.941 15.212C171.509 15.212 171.173 15.32 170.933 15.536C170.717 15.728 170.609 15.992 170.609 16.328C170.609 16.664 171.125 17.408 172.157 18.56C172.493 18.32 172.805 17.984 173.093 17.552Z" fill="black"/>
<path d="M149.174 29.432C147.302 29.432 145.826 28.844 144.746 27.668C143.666 26.468 143.126 24.788 143.126 22.628C143.126 19.988 143.906 17.756 145.466 15.932C147.026 14.084 149.078 13.16 151.622 13.16L153.242 13.304C153.818 13.136 154.358 13.052 154.862 13.052C156.062 13.052 156.914 13.46 157.418 14.276C157.946 15.092 158.246 16.256 158.318 17.768C159.326 17.72 160.286 17.564 161.198 17.3L161.702 17.156C161.87 17.324 161.99 17.828 162.062 18.668L162.098 19.064C161.018 19.616 159.698 20.048 158.138 20.36C157.61 22.904 156.566 25.052 155.006 26.804C153.446 28.556 151.502 29.432 149.174 29.432ZM149.894 22.484C149.894 24.716 150.458 25.832 151.586 25.832C152.378 25.832 153.182 25.328 153.998 24.32C154.838 23.312 155.414 22.088 155.726 20.648C153.278 20.648 152.054 19.472 152.054 17.12C152.054 16.712 152.09 16.292 152.162 15.86C151.922 15.86 151.742 15.896 151.622 15.968C151.214 16.4 150.818 17.276 150.434 18.596C150.074 19.892 149.894 21.188 149.894 22.484Z" fill="black"/>
<path d="M122.873 11.54C122.873 11.084 122.813 10.748 122.693 10.532C122.597 10.316 122.369 10.004 122.009 9.596V9.092C122.489 8.804 123.269 8.552 124.349 8.336C125.429 8.096 126.377 7.976 127.193 7.976C128.513 7.976 129.389 8.036 129.821 8.156C129.965 8.396 130.037 8.864 130.037 9.56C130.037 10.256 129.509 12.644 128.453 16.724C129.077 16.868 129.725 16.94 130.397 16.94C131.717 16.94 132.689 16.28 133.313 14.96C133.961 13.616 134.285 12.104 134.285 10.424C134.285 7.352 132.365 5.816 128.525 5.816C125.597 5.816 123.137 6.284 121.145 7.22C119.153 8.132 118.157 9.26 118.157 10.604C118.157 11.636 118.877 12.296 120.317 12.584C120.341 12.776 120.353 13.004 120.353 13.268C120.353 14.588 120.137 15.584 119.705 16.256C118.577 16.112 117.557 15.632 116.645 14.816C115.733 14 115.277 12.776 115.277 11.144C115.277 8.624 116.633 6.644 119.345 5.204C122.081 3.74 125.381 3.008 129.245 3.008C133.133 3.008 136.085 3.608 138.101 4.808C140.141 5.984 141.161 7.784 141.161 10.208C141.161 12.608 140.273 14.732 138.497 16.58C136.721 18.428 134.297 19.352 131.225 19.352C129.905 19.352 128.801 19.172 127.913 18.812C126.833 23.084 126.197 26.348 126.005 28.604C124.277 29.012 122.333 29.216 120.173 29.216C119.597 29.216 119.201 29.18 118.985 29.108C119.105 27.62 119.777 24.668 121.001 20.252C122.249 15.836 122.873 12.932 122.873 11.54Z" fill="black"/>
<path d="M99.4786 20.324C99.4786 18.932 99.5626 17.876 99.7306 17.156H111.647C111.647 18.476 111.563 19.532 111.395 20.324H99.4786Z" fill="black"/>
<path d="M92.5736 15.5C92.5736 16.556 92.2736 18.2 91.6736 20.432C91.0736 22.64 90.7736 24.08 90.7736 24.752C90.7736 25.424 90.9056 25.76 91.1696 25.76C91.4336 25.76 91.9136 25.64 92.6096 25.4L92.9336 25.256L93.5816 27.056C92.7656 27.68 91.7456 28.232 90.5216 28.712C89.3216 29.192 88.2296 29.432 87.2456 29.432C86.2616 29.432 85.4816 29.156 84.9056 28.604C84.3536 28.052 84.0776 27.26 84.0776 26.228C84.0776 25.172 84.3656 23.576 84.9416 21.44C85.5416 19.28 85.8416 17.912 85.8416 17.336C85.8416 16.448 85.5296 15.608 84.9056 14.816L84.6176 14.42L84.7256 13.808C85.9736 13.424 88.3976 13.232 91.9976 13.232C92.3816 13.664 92.5736 14.42 92.5736 15.5ZM89.8736 10.424C88.7936 10.424 87.9416 10.136 87.3176 9.56001C86.7176 8.98401 86.4176 8.25201 86.4176 7.36401C86.4176 6.452 86.7896 5.696 87.5336 5.096C88.3016 4.472 89.2256 4.16 90.3056 4.16C91.3856 4.16 92.2256 4.412 92.8256 4.916C93.4256 5.42 93.7256 6.12801 93.7256 7.04C93.7256 7.952 93.3536 8.744 92.6096 9.416C91.8896 10.088 90.9776 10.424 89.8736 10.424Z" fill="#FEE402"/>
<path d="M69.0366 13.16L76.4166 13.34C77.2566 13.34 78.0366 13.304 78.7566 13.232L79.0806 14.456C75.6006 18.488 73.1166 21.536 71.6286 23.6C74.0046 24.224 75.5046 24.548 76.1286 24.572C76.7766 24.572 77.3046 24.068 77.7126 23.06L79.2606 23.6C78.8286 27.824 77.4486 29.936 75.1206 29.936C74.3046 29.936 73.1886 29.54 71.7726 28.748C70.3806 27.956 69.4806 27.488 69.0726 27.344C67.9206 28.568 67.0566 29.18 66.4806 29.18C65.9286 29.18 65.3166 28.856 64.6446 28.208C63.9726 27.536 63.6366 26.912 63.6366 26.336C63.6366 25.76 64.0566 25.052 64.8966 24.212C65.7606 23.372 66.6726 22.952 67.6326 22.952C67.8726 22.952 68.2326 22.976 68.7126 23.024C70.1286 21.704 71.3766 19.964 72.4566 17.804C69.5286 17.804 67.3206 18.236 65.8326 19.1C65.5446 17.948 65.4006 16.952 65.4006 16.112C65.4006 15.272 65.4246 14.54 65.4726 13.916C65.8566 13.412 67.0446 13.16 69.0366 13.16Z" fill="#FEE402"/>
<path d="M59.5512 14.42C59.0472 15.98 58.6152 17.84 58.2552 20C57.8952 22.136 57.7152 23.636 57.7152 24.5C57.7152 25.34 57.8472 25.76 58.1112 25.76L59.9112 25.256L60.5592 27.056C59.7912 27.656 58.8072 28.208 57.6072 28.712C56.4312 29.192 55.3872 29.432 54.4752 29.432C52.9152 29.432 51.9312 28.76 51.5232 27.416C49.6272 28.76 47.9472 29.432 46.4832 29.432C45.0432 29.432 43.9272 28.904 43.1352 27.848C42.3432 26.792 41.9472 25.28 41.9472 23.312C41.9472 20.6 42.6432 18.212 44.0352 16.148C45.4272 14.084 47.2632 13.052 49.5432 13.052C50.7912 13.052 52.0632 13.4 53.3592 14.096C53.5512 13.664 53.7072 13.352 53.8272 13.16C55.5552 13.16 57.4632 13.58 59.5512 14.42ZM48.7152 22.88C48.7152 24.08 48.7992 24.836 48.9672 25.148C49.1352 25.46 49.4472 25.616 49.9032 25.616C50.3592 25.616 50.8032 25.436 51.2352 25.076C51.3312 22.292 51.7872 19.376 52.6032 16.328C52.2432 16.112 51.8232 16.004 51.3432 16.004C50.8872 16.004 50.4672 16.268 50.0832 16.796C49.7232 17.324 49.4472 17.984 49.2552 18.776C48.8952 20.288 48.7152 21.656 48.7152 22.88Z" fill="#FEE402"/>
<path d="M32.5914 11.828C32.5914 9.47601 31.5714 7.28001 29.5314 5.24001C30.0594 4.20801 30.7434 3.27201 31.5834 2.43201C32.4474 1.59201 33.1674 1.01601 33.7434 0.704012L34.6074 0.200012C35.6874 0.200012 36.6114 0.824011 37.3794 2.07201C38.1714 3.29601 38.5674 4.67601 38.5674 6.21201C38.5674 8.92401 37.7754 12.116 36.1914 15.788C34.6074 19.436 32.6034 22.628 30.1794 25.364C27.7794 28.076 25.5474 29.432 23.4834 29.432C20.8914 29.432 19.4154 28.22 19.0554 25.796C18.0474 26.924 16.9674 27.812 15.8154 28.46C14.6634 29.108 13.4874 29.432 12.2874 29.432C11.0874 29.432 10.0674 29.024 9.22741 28.208C8.41141 27.368 8.00341 26.036 8.00341 24.212C8.00341 22.94 8.06341 20.984 8.18341 18.344C5.92741 18.224 4.06741 17.468 2.60341 16.076C1.13941 14.684 0.40741 13.136 0.40741 11.432C0.40741 9.17601 1.42741 7.28001 3.46741 5.74401C5.50741 4.20801 7.67941 3.44001 9.98341 3.44001C11.6154 3.44001 12.9474 3.96801 13.9794 5.02401C15.0354 6.05601 15.5634 7.66401 15.5634 9.84801C15.5634 11.216 15.4794 13.22 15.3114 15.86C15.1434 18.5 15.0594 20.624 15.0594 22.232C15.0594 23.84 15.2874 24.644 15.7434 24.644C16.1034 24.644 16.6074 24.356 17.2554 23.78C17.9274 23.18 18.5154 22.508 19.0194 21.764C19.0674 21.068 19.1754 19.988 19.3434 18.524C19.7034 15.38 19.8834 12.668 19.8834 10.388C19.8834 8.10801 19.6194 6.29601 19.0914 4.95201C21.9234 4.01601 24.4554 3.53601 26.6874 3.51201C26.9514 4.44801 27.0834 5.94801 27.0834 8.01201C27.0834 10.052 26.9034 12.704 26.5434 15.968C26.1834 19.232 26.0034 21.512 26.0034 22.808C26.0034 24.08 26.1834 24.716 26.5434 24.716C26.9034 24.716 27.3834 24.332 27.9834 23.564C28.6074 22.772 29.2314 21.788 29.8554 20.612C30.4794 19.412 31.0554 18.02 31.5834 16.436C32.1114 14.828 32.4474 13.292 32.5914 11.828ZM8.32741 15.464C8.44741 14.264 8.50741 12.992 8.50741 11.648C8.50741 10.28 8.39941 9.14001 8.18341 8.22801C7.96741 7.31601 7.48741 6.86001 6.74341 6.86001C6.02341 6.86001 5.26741 7.32801 4.47541 8.26401C3.70741 9.17601 3.32341 10.244 3.32341 11.468C3.32341 12.668 3.81541 13.64 4.79941 14.384C5.78341 15.104 6.95941 15.464 8.32741 15.464Z" fill="#FEE402"/>
</svg>
