<svg width="114" height="114" viewBox="0 0 114 114" fill="none" xmlns="http://www.w3.org/2000/svg">
<g clip-path="url(#clip0_13_186)">
<mask id="mask0_13_186" style="mask-type:luminance" maskUnits="userSpaceOnUse" x="0" y="0" width="114" height="114">
<path d="M0.243164 0.243164H113.757V113.757H0.243164V0.243164Z" fill="white"/>
</mask>
<g mask="url(#mask0_13_186)">
<mask id="mask1_13_186" style="mask-type:luminance" maskUnits="userSpaceOnUse" x="0" y="0" width="114" height="114">
<path d="M57 0.243164C25.6528 0.243164 0.243164 25.6528 0.243164 57C0.243164 88.3472 25.6528 113.757 57 113.757C88.3472 113.757 113.757 88.3472 113.757 57C113.757 25.6528 88.3472 0.243164 57 0.243164Z" fill="white"/>
</mask>
<g mask="url(#mask1_13_186)">
<path d="M0.243164 0.243164H113.757V113.757H0.243164V0.243164Z" fill="#FEE402"/>
</g>
</g>
<path d="M27.793 68.4364C30.7561 68.4364 34.6296 66.3384 36.7728 59.2276C37.3213 57.4492 38.8707 57.5396 38.5964 59.2276C37.5023 66.2027 40.4229 68.4364 43.5217 68.4364C55.4222 68.4364 50.5902 42.9503 59.5247 42.9503C61.077 42.9503 61.0289 43.8608 63.3558 43.8608C70.2857 43.8608 70.9247 33.603 62.3973 33.603C56.4712 33.603 51.8201 38.3445 48.2633 49.8803C46.8948 54.2118 45.9844 57.8139 44.206 57.8139C43.157 57.8139 42.2918 55.2127 43.5217 49.1056C44.3869 44.955 47.3528 42.0823 47.3528 38.845C47.3528 36.6114 45.4359 35.4267 43.4313 35.4267C39.374 35.4267 39.4192 40.0777 37.2308 47.8276C35.2686 54.896 33.9482 57.8139 32.2603 57.8139C29.8881 57.8139 30.7561 54.1666 33.5835 41.9919C34.6777 37.3408 34.1292 34.5134 27.5188 34.5134C17.9424 34.5134 11.103 40.2587 11.103 47.0529C11.103 50.5645 13.0652 53.7538 16.803 53.7538C21.225 53.7538 23.5972 49.835 22.7773 47.8276C21.7735 47.8276 21.0441 46.8239 21.0441 45.5487C21.0441 42.6761 24.6009 40.6234 28.6582 41.8081C24.1429 50.1065 22.503 56.1259 22.503 60.3218C22.503 66.1123 25.1466 68.4364 27.793 68.4364Z" fill="black"/>
<path d="M88.8045 34.5105C76.7202 34.5105 69.1966 40.8495 69.1966 48.3279C69.1966 51.6557 71.1559 54.6641 74.8966 54.6641C79.3186 54.6641 81.6908 50.7425 80.8708 48.7379C79.8671 48.7379 79.1376 47.8246 79.1376 46.5947C79.1376 42.3989 83.6982 40.6205 88.9882 40.6205C94.0493 40.6205 96.9219 42.2151 96.9219 46.1367C96.9219 50.0583 94.185 52.2014 91.6318 52.2014C89.6244 52.2014 89.1692 51.3815 89.8082 49.5578L89.6696 49.8773C89.9439 48.7379 90.4924 47.3242 91.1766 45.3167C91.6318 43.8126 91.0833 42.8541 89.1692 42.8541C87.8007 42.8541 86.797 43.4478 86.2061 45.0425C85.4314 47.0047 84.5634 49.3288 83.7887 51.3815C81.6455 56.8525 78.2244 59.1794 75.7165 59.1794C73.5734 59.1794 71.8882 57.8109 71.8882 55.8063C71.8882 55.4868 71.5687 55.2578 71.204 55.2578C67.5539 55.2578 65.1393 58.9984 65.1393 62.8267C65.1393 66.5673 67.2824 70.3504 72.6177 70.3504C78.5439 70.3504 83.3787 65.0151 86.0223 58.04L86.2513 57.5848C86.5256 57.172 86.8903 56.9458 87.3455 56.9458C88.485 56.9458 88.9882 58.2662 91.9966 58.2662C100.159 58.2662 104.217 51.7915 104.217 46.1367C104.217 38.7063 99.2912 34.5105 88.8045 34.5105Z" fill="black"/>
</g>
<defs>
<clipPath id="clip0_13_186">
<rect width="114" height="114" fill="white"/>
</clipPath>
</defs>
</svg>
